<svg height="512" viewBox="0 0 256 256" width="512" xmlns="http://www.w3.org/2000/svg"><path d="m172.006 183.635h-88.012a5.643 5.643 0 0 1 -5.636-5.635v-11.18a5.642 5.642 0 0 1 5.636-5.635h88.012a5.642 5.642 0 0 1 5.636 5.635v11.18a5.643 5.643 0 0 1 -5.636 5.635zm-88.012-17.452a.637.637 0 0 0 -.636.635v11.182a.637.637 0 0 0 .636.637h88.012a.637.637 0 0 0 .636-.637v-11.18a.637.637 0 0 0 -.636-.635z" fill="#7b31f4"/><g fill="#7b31f4"><path d="m229.728 59.185h-203.456a8.782 8.782 0 0 0 -8.772 8.772v120.086a8.782 8.782 0 0 0 8.772 8.772h203.456a8.782 8.782 0 0 0 8.772-8.772v-120.086a8.782 8.782 0 0 0 -8.772-8.772zm-5.865 5v4.274a9.335 9.335 0 0 1 -9.325 9.325h-173.076a9.335 9.335 0 0 1 -9.325-9.325v-4.274zm9.637 123.858a3.776 3.776 0 0 1 -3.772 3.772h-203.456a3.776 3.776 0 0 1 -3.772-3.772v-120.086a3.776 3.776 0 0 1 3.772-3.772h.865v4.274a14.341 14.341 0 0 0 14.325 14.325h173.076a14.341 14.341 0 0 0 14.325-14.325v-4.274h.865a3.776 3.776 0 0 1 3.772 3.772z"/><path d="m43.785 88.132h-10.843a5.811 5.811 0 0 0 -5.8 5.8v10.848a5.811 5.811 0 0 0 5.805 5.8h10.838a5.811 5.811 0 0 0 5.8-5.8v-10.843a5.811 5.811 0 0 0 -5.8-5.805zm.8 16.648a.8.8 0 0 1 -.8.8h-10.843a.806.806 0 0 1 -.8-.8v-10.843a.806.806 0 0 1 .8-.8h10.843a.8.8 0 0 1 .8.8z"/><path d="m69.4 88.132h-10.848a5.811 5.811 0 0 0 -5.8 5.8v10.848a5.811 5.811 0 0 0 5.8 5.8h10.848a5.811 5.811 0 0 0 5.8-5.8v-10.843a5.811 5.811 0 0 0 -5.8-5.805zm.8 16.648a.806.806 0 0 1 -.8.8h-10.848a.8.8 0 0 1 -.8-.8v-10.843a.8.8 0 0 1 .8-.8h10.848a.806.806 0 0 1 .8.8z"/><path d="m95.006 88.132h-10.843a5.811 5.811 0 0 0 -5.8 5.8v10.848a5.811 5.811 0 0 0 5.8 5.8h10.843a5.811 5.811 0 0 0 5.805-5.8v-10.843a5.811 5.811 0 0 0 -5.805-5.805zm.805 16.648a.806.806 0 0 1 -.805.8h-10.843a.806.806 0 0 1 -.8-.8v-10.843a.806.806 0 0 1 .8-.8h10.843a.806.806 0 0 1 .805.8z"/><path d="m120.617 88.132h-10.844a5.811 5.811 0 0 0 -5.8 5.8v10.848a5.811 5.811 0 0 0 5.8 5.8h10.844a5.811 5.811 0 0 0 5.8-5.8v-10.843a5.811 5.811 0 0 0 -5.8-5.805zm.8 16.648a.806.806 0 0 1 -.8.8h-10.844a.806.806 0 0 1 -.8-.8v-10.843a.806.806 0 0 1 .8-.8h10.844a.806.806 0 0 1 .8.8z"/><path d="m146.227 88.132h-10.844a5.811 5.811 0 0 0 -5.8 5.8v10.848a5.811 5.811 0 0 0 5.8 5.8h10.844a5.811 5.811 0 0 0 5.8-5.8v-10.843a5.811 5.811 0 0 0 -5.8-5.805zm.8 16.648a.806.806 0 0 1 -.8.8h-10.844a.806.806 0 0 1 -.8-.8v-10.843a.806.806 0 0 1 .8-.8h10.844a.806.806 0 0 1 .8.8z"/><path d="m171.837 88.132h-10.843a5.811 5.811 0 0 0 -5.805 5.8v10.848a5.811 5.811 0 0 0 5.805 5.8h10.843a5.811 5.811 0 0 0 5.805-5.8v-10.843a5.811 5.811 0 0 0 -5.805-5.805zm.805 16.648a.806.806 0 0 1 -.805.8h-10.843a.806.806 0 0 1 -.805-.8v-10.843a.806.806 0 0 1 .805-.8h10.843a.806.806 0 0 1 .805.8z"/><path d="m197.448 88.132h-10.848a5.811 5.811 0 0 0 -5.8 5.8v10.848a5.811 5.811 0 0 0 5.8 5.8h10.844a5.811 5.811 0 0 0 5.8-5.8v-10.843a5.811 5.811 0 0 0 -5.796-5.805zm.8 16.648a.8.8 0 0 1 -.8.8h-10.848a.806.806 0 0 1 -.8-.8v-10.843a.806.806 0 0 1 .8-.8h10.844a.8.8 0 0 1 .8.8z"/><path d="m223.058 88.132h-10.843a5.811 5.811 0 0 0 -5.8 5.8v10.848a5.811 5.811 0 0 0 5.8 5.8h10.843a5.811 5.811 0 0 0 5.805-5.8v-10.843a5.811 5.811 0 0 0 -5.805-5.805zm.805 16.648a.806.806 0 0 1 -.805.8h-10.843a.8.8 0 0 1 -.8-.8v-10.843a.8.8 0 0 1 .8-.8h10.843a.806.806 0 0 1 .805.8z"/><path d="m43.785 112.482h-10.843a5.811 5.811 0 0 0 -5.8 5.805v10.843a5.811 5.811 0 0 0 5.805 5.805h10.838a5.811 5.811 0 0 0 5.8-5.805v-10.843a5.811 5.811 0 0 0 -5.8-5.805zm.8 16.648a.806.806 0 0 1 -.8.805h-10.843a.806.806 0 0 1 -.8-.805v-10.843a.806.806 0 0 1 .8-.805h10.843a.806.806 0 0 1 .8.805z"/><path d="m69.4 112.482h-10.848a5.811 5.811 0 0 0 -5.8 5.805v10.843a5.811 5.811 0 0 0 5.8 5.805h10.848a5.811 5.811 0 0 0 5.8-5.805v-10.843a5.811 5.811 0 0 0 -5.8-5.805zm.8 16.648a.806.806 0 0 1 -.8.805h-10.848a.806.806 0 0 1 -.8-.805v-10.843a.806.806 0 0 1 .8-.805h10.848a.806.806 0 0 1 .8.805z"/><path d="m95.006 112.482h-10.843a5.811 5.811 0 0 0 -5.8 5.805v10.843a5.811 5.811 0 0 0 5.8 5.805h10.843a5.811 5.811 0 0 0 5.805-5.805v-10.843a5.811 5.811 0 0 0 -5.805-5.805zm.805 16.648a.806.806 0 0 1 -.805.805h-10.843a.806.806 0 0 1 -.8-.805v-10.843a.806.806 0 0 1 .8-.805h10.843a.806.806 0 0 1 .805.805z"/><path d="m120.617 112.482h-10.844a5.811 5.811 0 0 0 -5.8 5.805v10.843a5.811 5.811 0 0 0 5.8 5.805h10.844a5.811 5.811 0 0 0 5.8-5.805v-10.843a5.811 5.811 0 0 0 -5.8-5.805zm.8 16.648a.806.806 0 0 1 -.8.805h-10.844a.806.806 0 0 1 -.8-.805v-10.843a.806.806 0 0 1 .8-.805h10.844a.806.806 0 0 1 .8.805z"/><path d="m146.227 112.482h-10.844a5.811 5.811 0 0 0 -5.8 5.805v10.843a5.811 5.811 0 0 0 5.8 5.805h10.844a5.811 5.811 0 0 0 5.8-5.805v-10.843a5.811 5.811 0 0 0 -5.8-5.805zm.8 16.648a.806.806 0 0 1 -.8.805h-10.844a.806.806 0 0 1 -.8-.805v-10.843a.806.806 0 0 1 .8-.805h10.844a.806.806 0 0 1 .8.805z"/><path d="m171.837 112.482h-10.843a5.811 5.811 0 0 0 -5.805 5.805v10.843a5.811 5.811 0 0 0 5.805 5.805h10.843a5.811 5.811 0 0 0 5.805-5.805v-10.843a5.811 5.811 0 0 0 -5.805-5.805zm.805 16.648a.806.806 0 0 1 -.805.805h-10.843a.806.806 0 0 1 -.805-.805v-10.843a.806.806 0 0 1 .805-.805h10.843a.806.806 0 0 1 .805.805z"/><path d="m197.448 112.482h-10.848a5.811 5.811 0 0 0 -5.8 5.805v10.843a5.811 5.811 0 0 0 5.8 5.805h10.844a5.811 5.811 0 0 0 5.8-5.805v-10.843a5.811 5.811 0 0 0 -5.796-5.805zm.8 16.648a.806.806 0 0 1 -.8.805h-10.848a.806.806 0 0 1 -.8-.805v-10.843a.806.806 0 0 1 .8-.805h10.844a.806.806 0 0 1 .8.805z"/><path d="m223.058 112.482h-10.843a5.811 5.811 0 0 0 -5.8 5.805v10.843a5.811 5.811 0 0 0 5.8 5.805h10.843a5.811 5.811 0 0 0 5.805-5.805v-10.843a5.811 5.811 0 0 0 -5.805-5.805zm.805 16.648a.806.806 0 0 1 -.805.805h-10.843a.806.806 0 0 1 -.8-.805v-10.843a.806.806 0 0 1 .8-.805h10.843a.806.806 0 0 1 .805.805z"/><path d="m43.785 136.832h-10.843a5.811 5.811 0 0 0 -5.8 5.805v10.843a5.811 5.811 0 0 0 5.805 5.8h10.838a5.81 5.81 0 0 0 5.8-5.8v-10.843a5.811 5.811 0 0 0 -5.8-5.805zm.8 16.648a.8.8 0 0 1 -.8.8h-10.843a.8.8 0 0 1 -.8-.8v-10.843a.806.806 0 0 1 .8-.805h10.843a.8.8 0 0 1 .8.805z"/><path d="m69.4 136.832h-10.848a5.811 5.811 0 0 0 -5.8 5.805v10.843a5.81 5.81 0 0 0 5.8 5.8h10.848a5.81 5.81 0 0 0 5.8-5.8v-10.843a5.811 5.811 0 0 0 -5.8-5.805zm.8 16.648a.8.8 0 0 1 -.8.8h-10.848a.8.8 0 0 1 -.8-.8v-10.843a.8.8 0 0 1 .8-.805h10.848a.806.806 0 0 1 .8.805z"/><path d="m95.006 136.832h-10.843a5.811 5.811 0 0 0 -5.8 5.805v10.843a5.811 5.811 0 0 0 5.8 5.8h10.843a5.811 5.811 0 0 0 5.805-5.8v-10.843a5.811 5.811 0 0 0 -5.805-5.805zm.805 16.648a.8.8 0 0 1 -.805.8h-10.843a.8.8 0 0 1 -.8-.8v-10.843a.806.806 0 0 1 .8-.805h10.843a.806.806 0 0 1 .805.805z"/><path d="m120.617 136.832h-10.844a5.811 5.811 0 0 0 -5.8 5.805v10.843a5.81 5.81 0 0 0 5.8 5.8h10.844a5.81 5.81 0 0 0 5.8-5.8v-10.843a5.811 5.811 0 0 0 -5.8-5.805zm.8 16.648a.8.8 0 0 1 -.8.8h-10.844a.8.8 0 0 1 -.8-.8v-10.843a.806.806 0 0 1 .8-.805h10.844a.806.806 0 0 1 .8.805z"/><path d="m146.227 136.832h-10.844a5.811 5.811 0 0 0 -5.8 5.805v10.843a5.81 5.81 0 0 0 5.8 5.8h10.844a5.81 5.81 0 0 0 5.8-5.8v-10.843a5.811 5.811 0 0 0 -5.8-5.805zm.8 16.648a.8.8 0 0 1 -.8.8h-10.844a.8.8 0 0 1 -.8-.8v-10.843a.806.806 0 0 1 .8-.805h10.844a.806.806 0 0 1 .8.805z"/><path d="m171.837 136.832h-10.843a5.811 5.811 0 0 0 -5.805 5.805v10.843a5.811 5.811 0 0 0 5.805 5.8h10.843a5.811 5.811 0 0 0 5.805-5.8v-10.843a5.811 5.811 0 0 0 -5.805-5.805zm.805 16.648a.8.8 0 0 1 -.805.8h-10.843a.8.8 0 0 1 -.805-.8v-10.843a.806.806 0 0 1 .805-.805h10.843a.806.806 0 0 1 .805.805z"/><path d="m197.448 136.832h-10.848a5.811 5.811 0 0 0 -5.8 5.805v10.843a5.81 5.81 0 0 0 5.8 5.8h10.844a5.81 5.81 0 0 0 5.8-5.8v-10.843a5.811 5.811 0 0 0 -5.796-5.805zm.8 16.648a.8.8 0 0 1 -.8.8h-10.848a.8.8 0 0 1 -.8-.8v-10.843a.806.806 0 0 1 .8-.805h10.844a.8.8 0 0 1 .8.805z"/><path d="m223.058 136.832h-10.843a5.811 5.811 0 0 0 -5.8 5.805v10.843a5.81 5.81 0 0 0 5.8 5.8h10.843a5.811 5.811 0 0 0 5.805-5.8v-10.843a5.811 5.811 0 0 0 -5.805-5.805zm.805 16.648a.8.8 0 0 1 -.805.8h-10.843a.8.8 0 0 1 -.8-.8v-10.843a.8.8 0 0 1 .8-.805h10.843a.806.806 0 0 1 .805.805z"/><path d="m43.785 161.183h-10.843a5.811 5.811 0 0 0 -5.8 5.8v10.847a5.811 5.811 0 0 0 5.805 5.8h10.838a5.811 5.811 0 0 0 5.8-5.8v-10.843a5.81 5.81 0 0 0 -5.8-5.804zm.8 16.647a.806.806 0 0 1 -.8.8h-10.843a.806.806 0 0 1 -.8-.8v-10.843a.806.806 0 0 1 .8-.8h10.843a.8.8 0 0 1 .8.8z"/><path d="m69.4 161.183h-10.848a5.81 5.81 0 0 0 -5.8 5.8v10.847a5.811 5.811 0 0 0 5.8 5.8h10.848a5.811 5.811 0 0 0 5.8-5.8v-10.843a5.81 5.81 0 0 0 -5.8-5.804zm.8 16.647a.806.806 0 0 1 -.8.8h-10.848a.806.806 0 0 1 -.8-.8v-10.843a.8.8 0 0 1 .8-.8h10.848a.805.805 0 0 1 .8.8z"/><path d="m197.448 161.183h-10.848a5.81 5.81 0 0 0 -5.8 5.8v10.847a5.811 5.811 0 0 0 5.8 5.8h10.844a5.811 5.811 0 0 0 5.8-5.8v-10.843a5.81 5.81 0 0 0 -5.796-5.804zm.8 16.647a.806.806 0 0 1 -.8.8h-10.848a.806.806 0 0 1 -.8-.8v-10.843a.805.805 0 0 1 .8-.8h10.844a.8.8 0 0 1 .8.8z"/><path d="m223.058 161.183h-10.843a5.81 5.81 0 0 0 -5.8 5.8v10.847a5.811 5.811 0 0 0 5.8 5.8h10.843a5.811 5.811 0 0 0 5.805-5.8v-10.843a5.811 5.811 0 0 0 -5.805-5.804zm.805 16.647a.806.806 0 0 1 -.805.8h-10.843a.806.806 0 0 1 -.8-.8v-10.843a.8.8 0 0 1 .8-.8h10.843a.806.806 0 0 1 .805.8z"/></g><path d="m53.5 73.484h-9a2.5 2.5 0 0 1 0-5h9a2.5 2.5 0 0 1 0 5z" fill="#7b31f4"/><path d="m166.689 73.484h-9a2.5 2.5 0 0 1 0-5h9a2.5 2.5 0 0 1 0 5z" fill="#7b31f4"/><path d="m185.689 73.484h-9a2.5 2.5 0 0 1 0-5h9a2.5 2.5 0 0 1 0 5z" fill="#7b31f4"/><path d="m204.689 73.484h-9a2.5 2.5 0 0 1 0-5h9a2.5 2.5 0 0 1 0 5z" fill="#7b31f4"/></svg>